<svg width="1024" height="1024" viewBox="0 0 1024 1024" fill="none" xmlns="http://www.w3.org/2000/svg">
<rect width="1024" height="1024" fill="#211851"/>
<rect x="81" y="67" width="862" height="862" rx="150" fill="#F5C3AF"/>
<path fill-rule="evenodd" clip-rule="evenodd" d="M439.701 623.204C478.067 661.555 520.524 682.268 562.803 687V435.622C562.803 419.053 576.234 405.622 592.803 405.622H623.583C607.135 405.763 593.846 419.14 593.846 435.62V590.496C626.254 590.496 654.633 573.246 670.303 547.428V663.946C687.37 654.285 703.677 641.799 718.858 626.629C782.885 562.136 795.69 495.36 768.657 414.888C754.144 369.799 730.241 322.144 701.216 267.638C699.168 263.732 697.05 259.614 694.897 255.429L694.897 255.429C684.785 235.769 673.906 214.62 665.929 206.856C655.116 196.012 640.034 196.582 628.651 207.997C615.846 220.838 616.415 236.248 626.091 265.07L656.823 351.822C660.523 360.954 659.953 366.66 656.539 370.085C652.555 374.08 647.148 374.651 639.75 367.516L429.172 155.775C417.22 144.075 397.586 144.075 385.918 155.775C373.966 167.76 373.966 187.165 385.918 199.151L536.737 350.395C529.338 353.819 521.655 358.384 513.972 363.521L338.965 188.021C327.298 176.036 307.663 176.036 295.711 188.021C284.044 200.007 284.044 219.412 295.711 231.397L468.442 404.614C462.75 411.463 457.344 418.883 452.222 426.302L294.004 267.353C282.052 255.368 262.702 255.368 250.75 267.353C239.083 279.338 239.083 298.743 250.75 310.729L422.912 483.09C419.212 492.792 416.936 502.495 414.943 511.627L295.427 391.772C283.76 379.787 264.125 379.787 252.173 391.772C240.506 403.758 240.506 423.162 252.173 435.148L439.701 623.204ZM643.708 542.469C668.128 542.469 687.924 522.608 687.924 498.108C687.924 473.609 668.128 453.748 643.708 453.748C619.288 453.748 599.492 473.609 599.492 498.108C599.492 522.608 619.288 542.469 643.708 542.469Z" fill="#211851"/>
<path d="M348.016 859C338.953 859 333.641 853.531 333.641 844V761.266C333.641 751.734 338.953 746.266 348.016 746.266H399.656C407.391 746.266 412.391 750.484 412.391 757.828C412.391 765.172 407.234 769.391 399.656 769.391H362.312V791.812H397.938C404.891 791.812 409.5 795.719 409.5 802.359C409.5 809 405.047 812.906 397.938 812.906H362.312V835.875H399.656C407.234 835.875 412.391 840.094 412.391 847.438C412.391 854.781 407.391 859 399.656 859H348.016ZM439.578 860.797C431.453 860.797 425.672 856.109 425.672 846.422V758.531C425.672 749.625 430.672 744.469 439.266 744.469C447.859 744.469 452.781 749.625 452.781 758.609V789.938H453.328C457.703 778.531 467 772.281 479.969 772.281C498.953 772.281 509.5 784.312 509.5 804.391V846.422C509.5 856.109 503.797 860.797 495.672 860.797C487.547 860.797 481.844 856.109 481.844 846.422V810.406C481.844 800.797 477.078 794.859 467.938 794.859C458.641 794.859 453.406 801.5 453.406 811.031V846.422C453.406 856.109 447.625 860.797 439.578 860.797ZM538.797 859C529.734 859 524.422 853.531 524.422 844V759.469C524.422 749.938 529.734 744.547 538.797 744.547C547.859 744.547 553.094 749.938 553.094 759.469V835.875H588.406C596.062 835.875 601.141 840.094 601.141 847.438C601.141 854.781 596.141 859 588.406 859H538.797ZM651.297 861.031C624.5 861.031 607.781 844.781 607.781 816.422C607.781 788.609 624.891 771.891 651.297 771.891C677.859 771.891 694.812 788.531 694.812 816.422C694.812 844.859 678.094 861.031 651.297 861.031ZM651.297 840.719C660.75 840.719 666.766 832.047 666.766 816.5C666.766 801.188 660.75 792.203 651.297 792.203C641.922 792.203 635.906 801.188 635.906 816.5C635.906 832.047 641.766 840.719 651.297 840.719Z" fill="#211851"/>
</svg>
